<svg width="12" height="12" viewBox="0 0 12 12" fill="none" xmlns="http://www.w3.org/2000/svg">
<path fill-rule="evenodd" clip-rule="evenodd" d="M0.75 6.75H9.645L6.9225 10.02C6.6574 10.3389 6.70106 10.8124 7.02 11.0775C7.33894 11.3426 7.8124 11.2989 8.0775 10.98L11.8275 6.48C11.8527 6.44421 11.8753 6.40661 11.895 6.3675C11.895 6.33 11.9325 6.3075 11.9475 6.27C11.9815 6.18401 11.9993 6.09247 12 6V6C11.9993 5.90753 11.9815 5.81599 11.9475 5.73C11.9475 5.6925 11.91 5.67 11.895 5.6325C11.8753 5.59339 11.8527 5.55579 11.8275 5.52L8.0775 1.02C7.93473 0.848596 7.72307 0.749638 7.5 0.750001V0.750001C7.32476 0.749659 7.15493 0.810691 7.02 0.922501L7.02 0.922502C6.70112 1.18687 6.65693 1.65968 6.9213 1.97856C6.9217 1.97904 6.9221 1.97952 6.9225 1.98L9.645 5.25H0.75C0.335786 5.25 0 5.58579 0 6C1.81058e-08 6.41422 0.335786 6.75 0.75 6.75L0.75 6.75Z" fill="white"/>
</svg>
