<svg width="18" height="18" viewBox="0 0 18 18" fill="none" xmlns="http://www.w3.org/2000/svg">
<path fill-rule="evenodd" clip-rule="evenodd" d="M14.25 9.75H5.355L8.0775 13.02C8.3426 13.3389 8.29894 13.8124 7.98 14.0775C7.66106 14.3426 7.1876 14.2989 6.9225 13.98L3.1725 9.48C3.14727 9.44421 3.12471 9.40661 3.105 9.3675C3.105 9.33 3.0675 9.3075 3.0525 9.27C3.01851 9.18401 3.00071 9.09247 3 9V9C3.00071 8.90753 3.01851 8.81599 3.0525 8.73C3.0525 8.6925 3.09 8.67 3.105 8.6325C3.12471 8.59339 3.14727 8.55579 3.1725 8.52L6.9225 4.02C7.06527 3.8486 7.27693 3.74964 7.5 3.75V3.75C7.67524 3.74966 7.84507 3.81069 7.98 3.9225L7.98 3.9225C8.29888 4.18687 8.34307 4.65968 8.0787 4.97856C8.0783 4.97904 8.0779 4.97952 8.0775 4.98L5.355 8.25H14.25C14.6642 8.25 15 8.58579 15 9C15 9.41422 14.6642 9.75 14.25 9.75L14.25 9.75Z" fill="white"/>
</svg>
