<svg width="12" height="12" viewBox="0 0 12 12" fill="none" xmlns="http://www.w3.org/2000/svg">
<path fill-rule="evenodd" clip-rule="evenodd" d="M11.25 6.75H2.355L5.0775 10.02C5.3426 10.3389 5.29894 10.8124 4.98 11.0775C4.66106 11.3426 4.1876 11.2989 3.9225 10.98L0.172501 6.48C0.147271 6.44421 0.12471 6.40661 0.105 6.3675C0.105 6.33 0.0675001 6.3075 0.0524998 6.27C0.0185051 6.18401 0.000705719 6.09247 0 6V6C0.000705719 5.90753 0.0185051 5.81599 0.0525007 5.73C0.0525007 5.6925 0.0900011 5.67 0.105001 5.6325C0.12471 5.59339 0.147271 5.55579 0.172501 5.52L3.9225 1.02C4.06527 0.848596 4.27693 0.749638 4.5 0.750001V0.750001C4.67524 0.749659 4.84507 0.810691 4.98 0.922501L4.98 0.922502C5.29888 1.18687 5.34307 1.65968 5.0787 1.97856C5.0783 1.97904 5.0779 1.97952 5.0775 1.98L2.355 5.25H11.25C11.6642 5.25 12 5.58579 12 6C12 6.41422 11.6642 6.75 11.25 6.75L11.25 6.75Z" fill="white"/>
</svg>
