<svg width="19" height="22" viewBox="0 0 19 22" fill="none" xmlns="http://www.w3.org/2000/svg">
<path fill-rule="evenodd" clip-rule="evenodd" d="M18.3246 14.624L16.5417 12.6933V7.93596V7.93594C16.5907 4.28296 14.1303 1.15074 10.7771 0.597272V0.597272C7.12173 0.0788524 3.7682 2.84982 3.28682 6.78639C3.2493 7.09327 3.23021 7.40243 3.22969 7.71195V12.6933L1.44683 14.624H1.44683C0.817734 15.3127 0.826237 16.4203 1.46582 17.0978C1.7674 17.4173 2.17279 17.5974 2.5958 17.6H5.9238V17.9626V17.9626C6.02012 20.2172 7.79185 21.9631 9.8857 21.8666C11.9795 21.9631 13.7513 20.2172 13.8476 17.9626V17.6H17.1756C18.0727 17.5946 18.7959 16.807 18.7908 15.8408C18.7885 15.3853 18.6212 14.9487 18.3246 14.624V14.624ZM11.8667 17.9626C11.7525 19.0286 10.8796 19.8089 9.88571 19.7333C8.89185 19.8089 8.01888 19.0286 7.90476 17.9626V17.6H11.8667V17.9626ZM3.45751 15.4666L4.62627 14.208C5.00071 13.8071 5.21107 13.2619 5.21066 12.6933V7.71196V7.71214C5.2117 6.25634 5.79661 4.87197 6.8151 3.91473L6.8151 3.91473C7.82026 2.93386 9.17457 2.47757 10.5196 2.66661C12.888 3.08074 14.6115 5.30993 14.5608 7.89329V12.6933V12.6933C14.5577 13.2604 14.7644 13.8054 15.1352 14.208L16.3139 15.4666L3.45751 15.4666Z" fill="#0F99FF"/>
</svg>
