<svg width="27" height="33" viewBox="0 0 27 33" fill="none" xmlns="http://www.w3.org/2000/svg">
<path d="M13.3357 5.5499V20.9752L7.3121 27.1641V33L19.3816 20.649V0L13.3357 5.5499Z" fill="white"/>
<path d="M0.435059 33V11.0775L12.5045 0V20.649L0.435059 33Z" fill="white"/>
<path d="M20.2127 5.5499V20.9752L14.1891 27.1641L14.1936 33L26.2586 20.649V0L20.2127 5.5499Z" fill="white"/>
<path d="M13.3357 5.5499V20.9752L7.3121 27.1641V33L19.3816 20.649V0L13.3357 5.5499Z" fill="white"/>
<path d="M0.435059 33V11.0775L12.5045 0V20.649L0.435059 33Z" fill="white"/>
<path d="M20.2127 5.5499V20.9752L14.1891 27.1641L14.1936 33L26.2586 20.649V0L20.2127 5.5499Z" fill="white"/>
</svg>
