<svg width="20" height="22" viewBox="0 0 20 22" fill="none" xmlns="http://www.w3.org/2000/svg">
<path fill-rule="evenodd" clip-rule="evenodd" d="M16.5 2.33335H15.4167V1.25002C15.4167 0.651712 14.9316 0.166687 14.3333 0.166687C13.735 0.166687 13.25 0.651712 13.25 1.25002V2.33335H6.75V1.25002C6.75 0.651712 6.26498 0.166687 5.66667 0.166687C5.06836 0.166687 4.58333 0.651712 4.58333 1.25002V2.33335H3.5C1.70508 2.33335 0.25 3.78843 0.25 5.58335V18.5834C0.25 20.3783 1.70508 21.8334 3.5 21.8334H16.5C18.2949 21.8334 19.75 20.3783 19.75 18.5834V5.58335C19.75 3.78843 18.2949 2.33335 16.5 2.33335ZM3.5 4.50002H4.58333V5.58335C4.58333 6.18166 5.06835 6.66669 5.66666 6.66669C6.26497 6.66669 6.75 6.18166 6.75 5.58335V4.50002H13.25V5.58335C13.25 6.18166 13.735 6.66669 14.3333 6.66669C14.9316 6.66669 15.4167 6.18166 15.4167 5.58335V4.50002H16.5C17.0983 4.50002 17.5833 4.98505 17.5833 5.58335V9.91669H2.41666V5.58335C2.41666 4.98505 2.90169 4.50002 3.5 4.50002ZM3.5 19.6667H16.5C17.0983 19.6667 17.5833 19.1817 17.5833 18.5834V12.0834H2.41666V18.5834C2.41666 19.1817 2.90169 19.6667 3.5 19.6667ZM6.43269 14.5673C6.85576 14.9904 6.85576 15.6763 6.43269 16.0994C6.00963 16.5225 5.3237 16.5225 4.90063 16.0994C4.47756 15.6763 4.47756 14.9904 4.90063 14.5673C5.3237 14.1443 6.00963 14.1443 6.43269 14.5673ZM10 14.25H14.3333C14.9316 14.25 15.4167 14.735 15.4167 15.3334C15.4167 15.9317 14.9316 16.4167 14.3333 16.4167H10C9.40169 16.4167 8.91667 15.9317 8.91667 15.3334C8.91667 14.735 9.40169 14.25 10 14.25Z" fill="#7C7D7F"/>
</svg>
