<svg width="20" height="21" viewBox="0 0 20 21" fill="none" xmlns="http://www.w3.org/2000/svg">
<path fill-rule="evenodd" clip-rule="evenodd" d="M10 0.666687C9.35567 0.666687 8.83333 1.18902 8.83333 1.83335V19.3334C8.83333 19.9777 9.35567 20.5 10 20.5C10.6443 20.5 11.1667 19.9777 11.1667 19.3334V1.83335C11.1667 1.18902 10.6443 0.666687 10 0.666687ZM18.1667 10C17.5223 10 17 10.5224 17 11.1667V19.3334C17 19.9777 17.5223 20.5 18.1667 20.5C18.811 20.5 19.3333 19.9777 19.3333 19.3334V11.1667C19.3333 10.5224 18.811 10 18.1667 10ZM0.666664 6.50002C0.666664 5.85569 1.189 5.33335 1.83333 5.33335C2.47766 5.33335 3 5.85569 3 6.50002V19.3334C3 19.9777 2.47766 20.5 1.83333 20.5C1.189 20.5 0.666664 19.9777 0.666664 19.3334V6.50002Z" fill="#0F99FF"/>
</svg>
