<svg width="23" height="23" viewBox="0 0 23 23" fill="none" xmlns="http://www.w3.org/2000/svg">
<g clip-path="url(#clip0)">
<path d="M17.4963 0C16.0265 0 14.6444 0.572774 13.6049 1.61228L9.31918 5.89802C9.64672 5.8523 9.97395 5.80264 10.3088 5.80264C11.2319 5.80264 12.1365 5.98198 12.9681 6.31452L15.6377 3.64498C16.1346 3.14872 16.7944 2.87498 17.4963 2.87498C18.9457 2.87498 20.1249 4.05416 20.1249 5.50361C20.1249 6.20553 19.8512 6.8653 19.3549 7.36223L14.5498 12.1675C13.5559 13.16 11.8264 13.1607 10.8325 12.1682L8.80115 14.2023C9.83998 15.2405 11.222 15.8125 12.6911 15.8125C14.1609 15.8125 15.5429 15.2397 16.5825 14.2002L21.3877 9.39498C22.4272 8.35548 23 6.9734 23 5.50361C23 2.46861 20.5313 0 17.4963 0V0Z" fill="#0F99FF"/>
<path d="M10.0066 16.7119L7.36228 19.3563C6.86535 19.8525 6.20553 20.1263 5.50365 20.1263C4.05421 20.1263 2.87502 18.9471 2.87502 17.4977C2.87502 16.7958 3.14876 16.136 3.64503 15.639L8.45028 10.8338C9.44419 9.84129 11.1737 9.84058 12.1676 10.8331L14.1989 8.79893C12.1206 6.72269 8.49663 6.72202 6.41757 8.80103L1.61228 13.6063C0.572729 14.6458 0 16.0278 0 17.4976C0 20.5327 2.46861 23.0012 5.50361 23.0012C6.9734 23.0012 8.35543 22.4284 9.39498 21.3889L13.6238 17.1601C13.3151 17.2016 13.0079 17.2512 12.6911 17.2512C11.7537 17.2513 10.8458 17.0638 10.0066 16.7119Z" fill="#0F99FF"/>
</g>
<defs>
<clipPath id="clip0">
<rect width="23" height="23" fill="white"/>
</clipPath>
</defs>
</svg>
