<svg width="33" height="27" viewBox="0 0 33 27" fill="none" xmlns="http://www.w3.org/2000/svg">
<path fill-rule="evenodd" clip-rule="evenodd" d="M28.5758 27H4.42455C1.9849 27 0 24.9862 0 22.5102V9.36998C0 6.89437 1.98452 4.88022 4.42455 4.88022H9.47462V4.31037C9.47462 1.93361 11.3798 0 13.722 0H19.278C21.6202 0 23.5254 1.93361 23.5254 4.31037V4.88022H28.5755C31.0151 4.88022 33 6.89399 33 9.36998V22.5102C33 24.9862 31.0155 27 28.5758 27ZM20.8928 4.31037C20.8928 3.40692 20.1683 2.67179 19.2784 2.67179H13.722C12.8321 2.67179 12.1076 3.40692 12.1076 4.31037V4.88022H20.8924V4.31037H20.8928ZM30.367 9.36998C30.367 8.36767 29.5632 7.55201 28.5755 7.55201H27.9138H27.5072H5.49279H5.08618H4.42455C3.4368 7.55201 2.63299 8.36767 2.63299 9.36998V22.5102C2.63299 23.5129 3.4368 24.3282 4.42455 24.3282H5.08618H5.49279H27.5072H27.9138H28.5755C29.5632 24.3282 30.367 23.5129 30.367 22.5102V9.36998Z" fill="white"/>
</svg>
