<svg width="24" height="16" viewBox="0 0 24 16" fill="none" xmlns="http://www.w3.org/2000/svg">
<path fill-rule="evenodd" clip-rule="evenodd" d="M2.27614 2.27614C2.79684 1.75544 2.79684 0.911223 2.27614 0.390524C1.75544 -0.130175 0.911223 -0.130175 0.390524 0.390524C-0.130174 0.911217 -0.130174 1.75544 0.390524 2.27614C0.911218 2.79684 1.75544 2.79684 2.27614 2.27614ZM2.27614 8.94282C2.79684 8.42212 2.79684 7.5779 2.27614 7.0572C1.75544 6.5365 0.911223 6.5365 0.390524 7.0572C-0.130175 7.5779 -0.130175 8.42212 0.390524 8.94282C0.911217 9.46352 1.75544 9.46352 2.27614 8.94282ZM2.27614 13.7239C2.79684 14.2446 2.79684 15.0888 2.27614 15.6095C1.75544 16.1302 0.911217 16.1302 0.390524 15.6095C-0.130175 15.0888 -0.130175 14.2446 0.390524 13.7239C0.911223 13.2032 1.75544 13.2032 2.27614 13.7239ZM5.33332 8.08C5.33332 8.77219 5.89447 9.33334 6.58666 9.33334H22.7467C23.4388 9.33334 24 8.77219 24 8.08V7.92C24 7.22781 23.4388 6.66667 22.7467 6.66667H6.58666C5.89447 6.66667 5.33332 7.22781 5.33332 7.92V8.08ZM6.58666 16C5.89447 16 5.33332 15.4389 5.33332 14.7467V14.5867C5.33332 13.8945 5.89447 13.3333 6.58666 13.3333H22.7467C23.4388 13.3333 24 13.8945 24 14.5867V14.7467C24 15.4389 23.4388 16 22.7467 16H6.58666ZM5.33332 1.41334C5.33332 2.10553 5.89447 2.66667 6.58666 2.66667H22.7467C23.4388 2.66667 24 2.10553 24 1.41334V1.25334C24 0.561147 23.4388 3.82587e-06 22.7467 3.82587e-06H6.58666C5.89447 3.82587e-06 5.33332 0.561147 5.33332 1.25334V1.41334Z" fill="#0F99FF"/>
</svg>
