<svg width="16" height="16" viewBox="0 0 16 16" fill="none" xmlns="http://www.w3.org/2000/svg">
<path d="M0.83553 9.21199C0.55721 8.77626 0.399801 8.31147 0.399801 7.74957C0.399801 6.45806 1.58093 5.23844 3.12334 5.23844H4.28104C4.12491 4.86256 4.00019 4.41303 4.00019 3.87284C4.00019 1.73689 5.1963 0.799805 7.02362 0.799805C8.97875 0.799805 8.86723 3.58537 9.30096 3.9864C10.0228 4.65385 10.8755 5.93611 11.4831 6.43356H14.6173C15.1781 6.43356 15.6328 6.85395 15.6328 7.37252V14.4147C15.6328 14.9333 15.1781 15.3537 14.6173 15.3537H12.5862C12.1136 15.3537 11.7164 15.0551 11.6031 14.6509C10.1906 14.6803 9.22105 15.8229 5.96049 15.8229C5.73136 15.8229 5.47747 15.8231 5.25532 15.8231C2.80798 15.8231 1.7014 14.6664 1.67112 13.0259C1.24844 12.4853 1.02693 11.7606 1.12083 11.0603C0.80811 10.5188 0.687199 9.87651 0.83553 9.21199ZM2.79519 10.7915C2.3966 11.4115 2.75521 12.2413 3.23759 12.4807C2.99322 13.9121 3.79638 14.4144 4.92337 14.4144H6.1236C8.3971 14.4144 9.86931 13.3047 11.5707 13.3047V7.84199H11.2241C10.3241 7.84199 9.06675 5.76191 8.22386 4.98228C7.32384 4.15013 7.62374 2.76311 7.02362 2.20824C5.52349 2.20824 5.52349 3.17596 5.52349 3.87284C5.52349 5.02218 6.4235 5.53714 6.4235 6.64688H3.12334C2.4534 6.64688 1.92596 7.20174 1.9231 7.75661C1.92025 8.31118 2.32995 8.86605 2.62985 8.86605C2.20177 9.29313 2.11031 10.1934 2.79519 10.7915ZM12.8401 13.4757C12.8401 13.8647 13.1811 14.18 13.6017 14.18C14.0224 14.18 14.3634 13.8647 14.3634 13.4757C14.3634 13.0868 14.0224 12.7715 13.6017 12.7715C13.1811 12.7715 12.8401 13.0868 12.8401 13.4757Z" fill="#7C7D7F"/>
</svg>
