<svg width="20" height="19" viewBox="0 0 20 19" fill="none" xmlns="http://www.w3.org/2000/svg">
<path d="M18.73 10.7125C19.0779 10.1678 19.2747 9.58685 19.2747 8.88447C19.2747 7.27008 17.7983 5.74556 15.8702 5.74556H14.4231C14.6183 5.27571 14.7742 4.7138 14.7742 4.03856C14.7742 1.36862 13.279 0.197266 10.9949 0.197266C8.55098 0.197266 8.69038 3.67922 8.14822 4.1805C7.24586 5.01482 6.18002 6.61765 5.42056 7.23946H1.50282C0.80174 7.23946 0.233398 7.76494 0.233398 8.41315V17.2159C0.233398 17.8641 0.80174 18.3896 1.50282 18.3896H4.04165C4.63245 18.3896 5.12891 18.0164 5.27053 17.5111C7.03617 17.5479 8.2481 18.9761 12.3238 18.9761C12.6102 18.9761 12.9276 18.9764 13.2053 18.9764C16.2644 18.9764 17.6477 17.5305 17.6855 15.4799C18.2139 14.8041 18.4908 13.8983 18.3734 13.0229C18.7643 12.3461 18.9154 11.5432 18.73 10.7125ZM16.2804 12.6869C16.7787 13.4619 16.3304 14.4991 15.7274 14.7984C16.0329 16.5876 15.0289 17.2155 13.6202 17.2155H12.1199C9.27804 17.2155 7.43778 15.8284 5.31107 15.8284V9H5.74426C6.86928 9 8.44098 6.39989 9.49459 5.42536C10.6196 4.38517 10.2447 2.6514 10.9949 1.95781C12.8701 1.95781 12.8701 3.16746 12.8701 4.03856C12.8701 5.47524 11.745 6.11894 11.745 7.50611H15.8702C16.7077 7.50611 17.367 8.19969 17.3705 8.89327C17.3741 9.58648 16.862 10.2801 16.4871 10.2801C17.0222 10.8139 17.1365 11.9392 16.2804 12.6869ZM3.7243 16.0422C3.7243 16.5284 3.29805 16.9225 2.77223 16.9225C2.24642 16.9225 1.82017 16.5284 1.82017 16.0422C1.82017 15.556 2.24642 15.1619 2.77223 15.1619C3.29805 15.1619 3.7243 15.556 3.7243 16.0422Z" fill="#0F99FF"/>
</svg>
