<svg width="27" height="26" viewBox="0 0 27 26" fill="none" xmlns="http://www.w3.org/2000/svg">
<path fill-rule="evenodd" clip-rule="evenodd" d="M26.0206 1.81187V1.6992C25.9598 1.55987 25.8737 1.4326 25.7667 1.32361C25.659 1.22379 25.5344 1.14329 25.3986 1.08575H25.2843C25.1674 0.997621 25.0335 0.933743 24.8908 0.897954H24.8274C24.7011 0.879068 24.5728 0.879068 24.4465 0.897954L1.59702 8.40962C0.930992 8.62552 0.568535 9.33303 0.787447 9.98989C0.913379 10.3678 1.21388 10.6641 1.59702 10.7883L12.4251 14.3438L16.0303 25.0229C16.2492 25.6798 16.9666 26.0373 17.6326 25.8214C18.0158 25.6972 18.3163 25.4008 18.4422 25.0229L26.0587 2.48792C26.0869 2.37748 26.0997 2.26376 26.0968 2.1499C26.0836 2.03489 26.058 1.92158 26.0206 1.81187ZM20.1306 5.01638L13.0599 11.9897L5.98924 9.6611L20.1306 5.01638ZM17.2118 20.7291L14.8507 13.7558L21.9213 6.78243L17.2118 20.7291Z" fill="#0F99FF"/>
</svg>
