<svg width="10" height="19" viewBox="0 0 10 19" fill="none" xmlns="http://www.w3.org/2000/svg">
<path fill-rule="evenodd" clip-rule="evenodd" d="M1.57771 18.8204C1.27664 18.821 0.984869 18.7171 0.753044 18.5267H0.753044C0.205193 18.0765 0.129275 17.2713 0.583474 16.7283C0.584159 16.7274 0.584846 16.7266 0.585533 16.7258L6.35822 9.88005L0.7917 3.02153L0.7917 3.02153C0.343083 2.47396 0.427239 1.66961 0.97967 1.22494C0.981437 1.22352 0.983208 1.2221 0.984982 1.22068V1.22068C1.51926 0.754734 2.33346 0.806306 2.80355 1.33587C2.82543 1.36053 2.84635 1.38601 2.86625 1.41226L9.08993 9.07542C9.48077 9.54671 9.48077 10.2262 9.08993 10.6975L2.6472 18.3606C2.38503 18.6741 1.98777 18.8449 1.57771 18.8204L1.57771 18.8204Z" fill="#0F99FF"/>
</svg>
