<svg width="15" height="15" viewBox="0 0 15 15" fill="none" xmlns="http://www.w3.org/2000/svg">
<path fill-rule="evenodd" clip-rule="evenodd" d="M14.502 13.3396L11.7188 10.5646C12.6168 9.4206 13.104 8.0079 13.1022 6.55356C13.1022 2.93682 10.1703 0.00488281 6.55356 0.00488281C2.93682 0.00488281 0.00488281 2.93682 0.00488281 6.55356C0.00488281 10.1703 2.93682 13.1022 6.55356 13.1022C8.0079 13.104 9.42061 12.6168 10.5646 11.7188L13.3396 14.502C13.658 14.823 14.1763 14.8251 14.4973 14.5068C14.4988 14.5052 14.5004 14.5036 14.502 14.502V14.502C14.823 14.1836 14.8251 13.6653 14.5068 13.3444C14.5052 13.3428 14.5036 13.3412 14.502 13.3396L14.502 13.3396ZM1.64208 6.55356V6.55356C1.64208 3.84101 3.84104 1.64205 6.55359 1.64205C9.26614 1.64205 11.4651 3.84101 11.4651 6.55356C11.4651 9.26611 9.26614 11.4651 6.55359 11.4651H6.55359C3.84104 11.4651 1.64208 9.26611 1.64208 6.55356L1.64208 6.55356Z" fill="#F8F9FD"/>
</svg>
