<svg width="34" height="30" viewBox="0 0 34 30" fill="none" xmlns="http://www.w3.org/2000/svg">
<path fill-rule="evenodd" clip-rule="evenodd" d="M18.6667 6.66667C18.6667 10.3486 15.6819 13.3333 12 13.3333C8.31811 13.3333 5.33334 10.3486 5.33334 6.66667C5.33334 2.98477 8.31811 0 12 0C15.6819 0 18.6667 2.98477 18.6667 6.66667ZM15.3333 6.66667C15.3333 4.82572 13.841 3.33333 12 3.33333C10.1591 3.33333 8.66668 4.82572 8.66668 6.66667C8.66668 8.50762 10.1591 10 12 10C13.841 10 15.3333 8.50762 15.3333 6.66667ZM30.3333 11.6667C30.3333 14.4281 28.0948 16.6667 25.3333 16.6667C22.5719 16.6667 20.3333 14.4281 20.3333 11.6667C20.3333 8.90525 22.5719 6.66667 25.3333 6.66667C28.0948 6.66667 30.3333 8.90525 30.3333 11.6667ZM27 11.6667C27 10.7462 26.2538 10 25.3333 10C24.4129 10 23.6667 10.7462 23.6667 11.6667C23.6667 12.5871 24.4129 13.3333 25.3333 13.3333C26.2538 13.3333 27 12.5871 27 11.6667ZM20.2333 20.0833C21.6924 18.9509 23.4864 18.3354 25.3333 18.3333C29.9357 18.3333 33.6667 22.0643 33.6667 26.6667C33.6667 27.5871 32.9205 28.3333 32 28.3333C31.0795 28.3333 30.3333 27.5871 30.3333 26.6667C30.3319 25.5438 29.9525 24.4541 29.2564 23.5731C27.5443 21.4065 24.4 21.038 22.2334 22.7501C23.1774 24.4593 23.6707 26.3808 23.6667 28.3334V28.3333C23.6667 29.2538 22.9205 30 22 30C21.0795 30 20.3333 29.2538 20.3333 28.3333C20.3333 23.731 16.6024 20 12 20C7.39764 20 3.66668 23.731 3.66668 28.3333C3.66668 29.2538 2.92049 30 2.00001 30C1.07954 30 0.333344 29.2538 0.333344 28.3333C0.33751 25.2526 1.56006 22.2985 3.73421 20.1158C8.28136 15.5507 15.6683 15.5362 20.2333 20.0833Z" fill="white"/>
</svg>
