<svg width="31" height="32" viewBox="0 0 31 32" fill="none" xmlns="http://www.w3.org/2000/svg">
<g clip-path="url(#clip0)">
<path d="M8.92055 12.582C5.94714 12.582 2.97372 14.0934 0 15.002V18.5335C2.97341 17.6252 5.94683 16.1135 8.92055 16.1135C13.1684 16.1135 17.4163 19.2039 21.6642 19.2039C24.6379 19.2039 27.611 17.6919 30.5847 16.7835V13.252C27.611 14.1604 24.6379 15.6724 21.6642 15.6724C17.416 15.6721 13.1684 12.582 8.92055 12.582Z" fill="white"/>
<path d="M8.92055 19.6445C5.94714 19.6445 2.97372 21.1558 0 22.0645V25.5964C2.97341 24.6877 5.94683 23.1763 8.92055 23.1763C13.1684 23.1763 17.4163 26.2664 21.6642 26.2664C24.6379 26.2664 27.611 24.7544 30.5847 23.8463V20.3145C27.611 21.2226 24.6379 22.7346 21.6642 22.7346C17.416 22.7346 13.1684 19.6445 8.92055 19.6445Z" fill="white"/>
<path d="M21.6638 8.6076C17.416 8.6076 13.1684 5.51758 8.92055 5.51758C5.94683 5.51758 2.97342 7.0289 0 7.9376V11.4691C2.97342 10.5604 5.94683 9.04876 8.92055 9.04876C13.1684 9.04876 17.4163 12.1388 21.6642 12.1388C24.6379 12.1388 27.611 10.6271 30.5847 9.71876V6.18758C27.6107 7.09564 24.6376 8.6076 21.6638 8.6076Z" fill="white"/>
</g>
<defs>
<clipPath id="clip0">
<rect width="30.5844" height="31.7838" fill="white"/>
</clipPath>
</defs>
</svg>
